<?xml version="1.0" standalone="no"?><!DOCTYPE svg PUBLIC "-//W3C//DTD SVG 1.1//EN" "http://www.w3.org/Graphics/SVG/1.1/DTD/svg11.dtd"><svg t="1658721106522" class="icon" viewBox="0 0 1024 1024" version="1.1" xmlns="http://www.w3.org/2000/svg" p-id="15532" xmlns:xlink="http://www.w3.org/1999/xlink" width="128" height="128"><defs><style type="text/css">@font-face { font-family: feedback-iconfont; src: url("//at.alicdn.com/t/font_1031158_u69w8yhxdu.woff2?t=1630033759944") format("woff2"), url("//at.alicdn.com/t/font_1031158_u69w8yhxdu.woff?t=1630033759944") format("woff"), url("//at.alicdn.com/t/font_1031158_u69w8yhxdu.ttf?t=1630033759944") format("truetype"); }
</style></defs><path d="M234.666667 42.666667A106.666667 106.666667 0 0 1 256 253.866667v387.114666c42.282667-48.213333 118.656-69.76 240.64-84.650666l37.504-4.522667c169.642667-21.76 227.925333-55.210667 233.386667-170.026667A106.752 106.752 0 0 1 789.333333 170.666667a106.666667 106.666667 0 0 1 20.949334 211.285333c-5.973333 147.114667-83.498667 189.354667-282.922667 213.717333l-37.504 4.522667c-169.642667 21.76-227.925333 55.210667-233.386667 170.026667L256 770.133333a106.666667 106.666667 0 1 1-42.666667 0V253.866667A106.666667 106.666667 0 0 1 234.666667 42.666667z m0 768a64 64 0 1 0 0 128 64 64 0 0 0 0-128z m554.666666-597.333334a64 64 0 1 0 0 128 64 64 0 0 0 0-128z m-554.666666-128a64 64 0 1 0 0 128 64 64 0 0 0 0-128z" p-id="15533" fill="#4282fd"></path></svg>