<?xml version="1.0" encoding="utf-8"?>
<svg id="master-artboard" viewBox="0 0 1024 1024" version="1.1" xmlns="http://www.w3.org/2000/svg" x="0px" y="0px" style="enable-background:new 0 0 336 235.2;" width="1024px" height="1024px"><rect id="ee-background" x="0" y="0" width="1024" height="1024" style="fill: white; fill-opacity: 0; pointer-events: none;"/>














<g transform="matrix(1.8194162845611572, 0, 0, 1.8194162845611572, 52.19520568847656, 2.3888378143310547)"><title>chatwoot_logo</title><desc>Created with Sketch.</desc><g id="Square-logo" stroke="none" stroke-width="1" fill="none" fill-rule="evenodd" transform="matrix(1, 0, 0, 1, -2.6344692765920854, 22.832067063798117)">
        <g id="chatwoot_logo" fill-rule="nonzero">
            <path d="M 512 256 A 256 256 0 0 1 256 512 A 256 256 0 0 1 0 256 A 256 256 0 0 1 256 0 A 256 256 0 0 1 512 256 Z" id="Oval" fill="#47A7F6" style="fill: rgb(255, 255, 255); stroke: rgb(66, 130, 253); stroke-width: 23; fill-opacity: 0; stroke-opacity: 1;"/>
            <path d="M362.807947,368.807947 L244.122956,368.807947 C178.699407,368.807947 125.456954,315.561812 125.456954,250.12177 C125.456954,184.703089 178.699407,131.456954 244.124143,131.456954 C309.565494,131.456954 362.807947,184.703089 362.807947,250.12177 L362.807947,368.807947 Z" id="Fill-1" stroke="#FFFFFF" stroke-width="6" fill="#FFFFFF" style="stroke-width: 23; fill: rgb(255, 255, 255); stroke: rgb(66, 130, 253); fill-opacity: 0; stroke-opacity: 1;"/>
        <path d="M 77.0684814453125 308.84326171875 L 77.0684814453125 308.84326171875" style="fill: rgb(255, 255, 255); fill-opacity: 0; stroke: rgb(66, 130, 253); stroke-opacity: 1; stroke-width: 23; paint-order: fill;"/><path d="M 257.92633056640625 163.71041870117188 L 257.92633056640625 163.71041870117188" style="fill: rgb(255, 255, 255); fill-opacity: 0; stroke: rgb(66, 130, 253); stroke-opacity: 1; stroke-width: 23; paint-order: fill;"/><path d="M 290.67425537109375 139.8937530517578" style="fill: rgb(255, 255, 255); fill-opacity: 0; stroke: rgb(66, 130, 253); stroke-opacity: 1; stroke-width: 23; paint-order: fill;"/><path d="M 107.5835952758789 205.38958740234375" style="fill: rgb(255, 255, 255); fill-opacity: 0; stroke: rgb(66, 130, 253); stroke-opacity: 1; stroke-width: 23; paint-order: fill;"/><path d="M 107.5835952758789 171.1531219482422 L 107.5835952758789 171.1531219482422" style="fill: rgb(255, 255, 255); fill-opacity: 0; stroke: rgb(66, 130, 253); stroke-opacity: 1; stroke-width: 23; paint-order: stroke;"/></g>
    </g></g></svg>