<?xml version="1.0" standalone="no"?><!DOCTYPE svg PUBLIC "-//W3C//DTD SVG 1.1//EN" "http://www.w3.org/Graphics/SVG/1.1/DTD/svg11.dtd"><svg t="1657791377531" class="icon" viewBox="0 0 1024 1024" version="1.1" xmlns="http://www.w3.org/2000/svg" p-id="53051" xmlns:xlink="http://www.w3.org/1999/xlink" width="128" height="128"><defs><style type="text/css">@font-face { font-family: feedback-iconfont; src: url("//at.alicdn.com/t/font_1031158_u69w8yhxdu.woff2?t=1630033759944") format("woff2"), url("//at.alicdn.com/t/font_1031158_u69w8yhxdu.woff?t=1630033759944") format("woff"), url("//at.alicdn.com/t/font_1031158_u69w8yhxdu.ttf?t=1630033759944") format("truetype"); }
</style></defs><path d="M881.29775948 133.75607388H715.97259971V72.56429396c0-17.17663997-13.95601998-30.59588996-30.59588996-30.59588995-17.17663997 0-30.59588996 13.95601998-30.59588995 30.59588995v61.19177992H369.2191802V72.56429396c0-17.17663997-13.95601998-30.59588996-30.59588995-30.59588995S308.02740029 55.38765399 308.02740029 72.56429396v61.19177992H142.70224052c-50.99314993 0-92.32443987 41.33128995-92.32443986 92.32443988v640.90337909c0 50.99314993 41.33128995 92.32443987 92.32443986 92.32443986h738.05874896c50.99314993 0 92.32443987-41.33128995 92.32443987-92.32443986V226.08051376c0-50.99314993-41.33128995-92.32443987-91.78766987-92.32443988zM142.70224052 194.9478538H308.02740029v35.42681995c0 17.17663997 13.95601998 30.59588996 30.59588996 30.59588995s30.59588996-13.95601998 30.59588995-30.59588995v-35.42681995h285.0248696v35.42681995c0 17.17663997 13.95601998 30.59588996 30.59588996 30.59588995 17.17663997 0 30.59588996-13.95601998 30.59588995-30.59588995v-35.42681995h164.78838977c17.17663997 0 30.59588996 13.95601998 30.59588996 30.59588996V333.9712836c-4.29415999-2.14708001-8.58831999-3.22061999-13.41924999-3.22061999H125.52560055c-4.83092999 0-9.12508999 1.61030999-13.41924998 3.22061999V226.08051376c0-17.17663997 13.95601998-31.13265995 30.59588995-31.13265996zM881.29775948 897.57978281H142.70224052c-17.17663997 0-30.59588996-13.95601998-30.59588995-30.59588996V388.72182352c4.29415999 2.14708001 8.58831999 3.22061999 13.41924998 3.22062h772.9487989c4.83092999 0 9.12508999-1.61030999 13.41924998-3.22062v478.26206933c0 16.63986998-13.95601998 30.59588996-30.59588995 30.59588996z" p-id="53052" fill="#4282fd"></path><path d="M372.9765702 507.34799336H247.37239038c-17.17663997 0-30.59588996 13.95601998-30.59588996 30.59588995 0 17.17663997 13.95601998 30.59588996 30.59588996 30.59588996h125.60417982c17.17663997 0 30.59588996-13.95601998 30.59588996-30.59588996 0-17.17663997-13.41924998-30.59588996-30.59588996-30.59588995z m0 181.42825973H247.37239038c-17.17663997 0-30.59588996 13.95601998-30.59588996 30.59588997s13.95601998 30.59588996 30.59588996 30.59588995h125.60417982c17.17663997 0 30.59588996-13.95601998 30.59588996-30.59588995s-13.41924998-30.59588996-30.59588996-30.59588997z m379.49638946-161.56776977l-110.03784985 140.63373981-74.07425989-57.97115992c-13.41924998-10.19862998-32.74296996-8.05154999-42.94159994 5.3677-10.73539998 13.41924998-8.05154999 32.74296996 5.36769999 42.94159993l98.22890986 76.75810989c5.90446999 4.29415999 12.34570998 6.44123999 18.78694997 6.44124 9.12508999 0 18.25017997-4.29415999 24.15464997-11.80893999l129.36156982-164.78838977c10.73539998-13.41924998 8.05154999-32.74296996-5.3677-42.94159994-13.95601998-10.19862998-33.27973996-7.51477999-43.47836993 5.36769999z" p-id="53053" fill="#4282fd"></path></svg>