<?xml version="1.0" encoding="utf-8"?>
<svg id="master-artboard" viewBox="0 0 1024 1024" version="1.1" xmlns="http://www.w3.org/2000/svg" x="0px" y="0px" style="enable-background:new 0 0 1400 980;" width="1024px" height="1024px"><rect id="ee-background" x="0" y="0" width="1024" height="1024" style="fill: white; fill-opacity: 0; pointer-events: none;"/><g transform="matrix(1.0511302947998047, 0, 0, 1.0511302947998047, -29.36898422241211, -28.30132293701172)"><g transform="matrix(42.66666030883789, 0, 0, 42.66666030883789, 7.451270286976069, -2.483673095703125)"><title>Google Messages</title><path d="M 12 0 C 5.372583002030481 1.21743675197672e-15 -8.116245013178133e-16 5.3725830020304794 0 12 C 8.116245013178133e-16 18.62741699796952 5.3725830020304794 24 12 24 C 18.62741699796952 24 24 18.62741699796952 24 12 C 24 5.372583002030481 18.62741699796952 4.0581225065890664e-16 12 0 Z M 4.911 7.089 L 16.366999999999997 7.089 C 17.56513418685592 7.1064473894735185 18.528309173319855 8.08074446844141 18.531999999999996 9.279 L 18.531999999999996 15.142 C 18.513259410399442 16.336639523512925 17.549630790756186 17.300710764271034 16.354999999999997 17.32 L 8.04 17.32 C 6.866 17.32 5.999999999999999 16.330000000000002 5.999999999999999 15.142 L 5.999999999999999 10.503 L 4.503 7.905 C 4.1930000000000005 7.485 4.453 7.089 4.9110000000000005 7.089 L 4.911 7.089 Z M 16.231 10.367 C 16.577 10.367 7.979000000000001 10.367 8.326 10.367 L 16.231 10.367 Z M 16.231 12.544 C 16.577 12.544 7.979000000000001 12.544 8.326 12.544 L 16.231 12.544 Z M 14.041 14.734 C 14.388 14.734 7.9670000000000005 14.734 8.313 14.734 L 14.041 14.734 Z" style="fill: rgb(66, 130, 253); stroke: rgb(66, 130, 253); fill-opacity: 0; stroke-width: 1;" transform="matrix(0.8684335947036744, 0, 0, 0.8684335947036744, 1.4352699558572475, 1.6649129730202823)"/><path d="M 21.322221755981445 1.814961552619934" style="fill: rgb(66, 130, 253); fill-opacity: 0; stroke: rgb(66, 130, 253); stroke-opacity: 1; stroke-width: 1; paint-order: stroke;" transform="matrix(0.8684335947036744, 0, 0, 0.8684335947036744, 1.4352699558572475, 1.6649129730202823)"/><path d="M 14.734641075134277 13.991851806640625" style="fill: rgb(66, 130, 253); fill-opacity: 0; stroke: rgb(66, 130, 253); stroke-opacity: 1; stroke-width: 1; paint-order: stroke;"/><path d="M 27.195507049560547 4.284331321716309" style="fill: rgb(66, 130, 253); fill-opacity: 0; stroke: rgb(66, 130, 253); stroke-opacity: 1; stroke-width: 1; paint-order: stroke;"/></g><rect id="ee-background" x="0" y="0" width="1024" height="1024" style="fill: white; fill-opacity: 0; pointer-events: none;"/></g></svg>