<?xml version="1.0" encoding="UTF-8"?>
<svg xmlns="http://www.w3.org/2000/svg" xmlns:xlink="http://www.w3.org/1999/xlink" viewBox="0 0 1024 1024" width="1024px" height="1024px">
<g id="surface93181676">
<path style=" stroke:none;fill-rule:nonzero;fill:rgb(25.882354%,50.980395%,99.215686%);fill-opacity:1;" d="M 592 40.320312 C 591.121094 40.480469 590.238281 40.71875 589.441406 40.960938 L 235.519531 40.960938 C 196.320312 40.960938 163.839844 72.878906 163.839844 112 L 163.839844 899.199219 C 163.839844 945.359375 202.078125 983.039062 248.320312 983.039062 L 775.679688 983.039062 C 821.921875 983.039062 860.160156 945.359375 860.160156 899.199219 L 860.160156 311.039062 C 860.71875 308.320312 860.71875 305.441406 860.160156 302.71875 L 860.160156 296.960938 C 860.320312 291.519531 858.238281 286.160156 854.398438 282.238281 L 618.878906 46.71875 C 614.960938 42.878906 609.601562 40.800781 604.160156 40.960938 L 597.761719 40.960938 C 595.921875 40.480469 593.921875 40.238281 592 40.320312 Z M 235.519531 81.921875 L 573.441406 81.921875 L 573.441406 252.800781 C 573.441406 294 607.121094 327.679688 648.320312 327.679688 L 819.199219 327.679688 L 819.199219 899.199219 C 819.199219 923.121094 799.839844 942.078125 775.679688 942.078125 L 248.320312 942.078125 C 224.160156 942.078125 204.800781 923.121094 204.800781 899.199219 L 204.800781 112 C 204.800781 95.121094 218.320312 81.921875 235.519531 81.921875 Z M 614.398438 101.121094 L 800 286.71875 L 648.320312 286.71875 C 629.199219 286.71875 614.398438 271.921875 614.398438 252.800781 Z M 348.160156 491.519531 L 348.160156 778.238281 L 675.839844 778.238281 L 675.839844 491.519531 Z M 389.121094 532.480469 L 491.519531 532.480469 L 491.519531 573.441406 L 389.121094 573.441406 Z M 532.480469 532.480469 L 634.878906 532.480469 L 634.878906 573.441406 L 532.480469 573.441406 Z M 389.121094 614.398438 L 491.519531 614.398438 L 491.519531 655.359375 L 389.121094 655.359375 Z M 532.480469 614.398438 L 634.878906 614.398438 L 634.878906 655.359375 L 532.480469 655.359375 Z M 389.121094 696.320312 L 491.519531 696.320312 L 491.519531 737.28125 L 389.121094 737.28125 Z M 532.480469 696.320312 L 634.878906 696.320312 L 634.878906 737.28125 L 532.480469 737.28125 Z M 532.480469 696.320312 "/>
</g>
</svg>
