<?xml version="1.0" encoding="UTF-8"?>
<svg xmlns="http://www.w3.org/2000/svg" xmlns:xlink="http://www.w3.org/1999/xlink" viewBox="0 0 128 128" width="128px" height="128px">
<g id="surface116301907">
<path style=" stroke:none;fill-rule:nonzero;fill:rgb(25.882354%,50.980395%,99.215686%);fill-opacity:1;" d="M 64 5.121094 C 31.609375 5.121094 5.121094 29.691406 5.121094 60.160156 C 5.121094 76.820312 13.140625 91.609375 25.601562 101.679688 L 25.601562 124.558594 L 29.359375 122.558594 L 47.839844 112.960938 C 53 114.339844 58.371094 115.199219 64 115.199219 C 96.390625 115.199219 122.878906 90.628906 122.878906 60.160156 C 122.878906 29.691406 96.390625 5.121094 64 5.121094 Z M 64 10.238281 C 93.808594 10.238281 117.761719 32.660156 117.761719 60.160156 C 117.761719 87.660156 93.808594 110.078125 64 110.078125 C 58.460938 110.078125 53.101562 109.28125 48.078125 107.839844 L 47.121094 107.601562 L 46.238281 108.078125 L 30.71875 116.160156 L 30.71875 99.359375 L 29.761719 98.640625 C 17.820312 89.449219 10.238281 75.621094 10.238281 60.160156 C 10.238281 32.660156 34.191406 10.238281 64 10.238281 Z M 58.160156 45.359375 L 27.359375 78 L 55.039062 62.480469 L 69.839844 78.320312 L 100.238281 45.359375 L 73.28125 60.480469 Z M 58.160156 45.359375 "/>
</g>
</svg>
