<?xml version="1.0" standalone="no"?><!DOCTYPE svg PUBLIC "-//W3C//DTD SVG 1.1//EN" "http://www.w3.org/Graphics/SVG/1.1/DTD/svg11.dtd"><svg t="1658309174607" class="icon" viewBox="0 0 1024 1024" version="1.1" xmlns="http://www.w3.org/2000/svg" p-id="2865" xmlns:xlink="http://www.w3.org/1999/xlink" width="128" height="128"><defs><style type="text/css">@font-face { font-family: feedback-iconfont; src: url("//at.alicdn.com/t/font_1031158_u69w8yhxdu.woff2?t=1630033759944") format("woff2"), url("//at.alicdn.com/t/font_1031158_u69w8yhxdu.woff?t=1630033759944") format("woff"), url("//at.alicdn.com/t/font_1031158_u69w8yhxdu.ttf?t=1630033759944") format("truetype"); }
</style></defs><path d="M276.252444 187.278222h471.495112v52.337778H276.252444z" fill="#4282fd" p-id="2866"></path><path d="M621.340444 213.447111H568.888889c0-26.510222-7.395556-70.997333-56.888889-70.997333-42.097778 0-56.888889 38.229333-56.888889 70.997333h-52.337778c0-72.590222 45.511111-123.335111 109.340445-123.335111 66.332444 0 109.226667 48.355556 109.226666 123.335111z" fill="#4282fd" p-id="2867"></path><path d="M981.902222 933.888H42.097778V187.278222h137.102222v52.337778H94.435556v641.934222h835.128888V239.616h-84.764444v-52.337778H981.902222v746.609778z" fill="#4282fd" p-id="2868"></path><path d="M456.590222 409.486222h360.561778v52.337778H456.590222zM456.590222 659.456h360.561778v52.337778H456.590222zM371.712 531.228444H180.792889v-191.146666h190.919111z m-138.581333-52.337777h86.357333v-86.584889h-86.357333zM371.712 781.198222H180.792889V589.937778h190.919111z m-138.581333-52.337778h86.357333v-86.584888h-86.357333z" fill="#4282fd" p-id="2869"></path></svg>