<?xml version="1.0" standalone="no"?><!DOCTYPE svg PUBLIC "-//W3C//DTD SVG 1.1//EN" "http://www.w3.org/Graphics/SVG/1.1/DTD/svg11.dtd"><svg t="1659513035179" class="icon" viewBox="0 0 1024 1024" version="1.1" xmlns="http://www.w3.org/2000/svg" p-id="31303" xmlns:xlink="http://www.w3.org/1999/xlink" width="128" height="128"><defs><style type="text/css">@font-face { font-family: feedback-iconfont; src: url("//at.alicdn.com/t/font_1031158_u69w8yhxdu.woff2?t=1630033759944") format("woff2"), url("//at.alicdn.com/t/font_1031158_u69w8yhxdu.woff?t=1630033759944") format("woff"), url("//at.alicdn.com/t/font_1031158_u69w8yhxdu.ttf?t=1630033759944") format("truetype"); }
</style></defs><path d="M865.6 742.56a157.632 157.632 0 1 0-131.68-71.04l-64 64.032-56.736-55.104a32 32 0 0 0-44.544 45.888l56.032 54.496-60.992 61.056-103.872-104a32 32 0 0 0-45.216 45.28l103.872 103.968-66.208 66.24a32 32 0 1 0 45.216 45.248l281.632-281.856a157.344 157.344 0 0 0 86.496 25.792z m-66.208-223.872a93.568 93.568 0 0 1 132.416 0 93.664 93.664 0 1 1-132.416 0z" fill="#4282fd" p-id="31304"></path><path d="M319.104 944H65.6a448.032 448.032 0 0 1 446.016-416 256.16 256.16 0 1 0-142.336-43.424A512.544 512.544 0 0 0 0 976a32 32 0 0 0 32 32h287.104a32 32 0 0 0 0-64z m0.64-672a191.84 191.84 0 1 1 191.84 192 192.128 192.128 0 0 1-191.84-192zM995.296 806.496a32 32 0 1 0-60.352 21.184 445.76 445.76 0 0 1 23.776 116.32H672a32 32 0 0 0 0 64h317.632c0.416 0 0.768-0.224 1.184-0.224 0.416 0 0.768 0.224 1.184 0.224a32 32 0 0 0 31.968-32 511.84 511.84 0 0 0-28.704-169.504z" fill="#4282fd" p-id="31305"></path></svg>