<?xml version="1.0" standalone="no"?><!DOCTYPE svg PUBLIC "-//W3C//DTD SVG 1.1//EN" "http://www.w3.org/Graphics/SVG/1.1/DTD/svg11.dtd"><svg t="1676947754066" class="icon" viewBox="0 0 1052 1024" version="1.1" xmlns="http://www.w3.org/2000/svg" p-id="6216" xmlns:xlink="http://www.w3.org/1999/xlink" width="131.5" height="128"><path d="M663.125333 731.904l-284.444444-284.444444a28.444444 28.444444 0 0 1 40.220444-40.220445l284.444445 284.444445a28.416 28.416 0 1 1-40.220445 40.220444zM143.928889 966.684444c-56.888889-56.888889-73.756444-125.809778-39.310222-160.284444 0.853333-0.881778 1.820444-1.678222 2.787555-2.446222l205.852445-157.923556c10.979556-8.448 14.193778-23.466667 7.850666-36.465778-68.437333-140.259556-39.111111-299.235556 76.515556-414.890666 85.674667-85.617778 207.644444-136.760889 326.314667-136.760889 93.866667 0 178.119111 32.540444 237.169777 91.591111 138.040889 138.012444 116.906667 401.322667-45.169777 563.456-72.760889 72.760889-165.063111 112.810667-259.868445 112.810667h-0.028444c-53.504 0-105.671111-12.202667-155.022223-36.266667-12.657778-6.144-28.216889-2.872889-36.408888 7.879111l-157.952 205.795556a26.168889 26.168889 0 0 1-2.474667 2.816c-11.776 11.776-27.989333 18.005333-46.876445 18.005333-35.128889 0-77.482667-21.418667-113.379555-57.315556z m40.248889-40.220444C212.195556 954.510222 241.123556 967.111111 257.28 967.111111a15.473778 15.473778 0 0 0 6.087111-0.967111l156.103111-203.406222c24.291556-31.658667 70.144-42.097778 106.524445-24.348445a294.428444 294.428444 0 0 0 130.048 30.492445c80.782222 0 156.728889-33.223111 219.648-96.142222 140.686222-140.714667 161.820444-366.421333 45.198222-483.015112-48.298667-48.327111-118.272-74.922667-196.949333-74.922666-103.907556 0-210.858667 44.885333-286.065778 120.120889-97.934222 97.934222-123.107556 231.936-65.649778 349.667555 18.090667 37.006222 7.850667 81.806222-24.32 106.552889L144.327111 847.36c-4.010667 7.082667 2.844444 42.126222 39.822222 79.104zM157.013333 313.571556a156.643556 156.643556 0 0 1-156.444444-156.444445c0-86.243556 70.200889-156.444444 156.444444-156.444444 86.272 0 156.444444 70.200889 156.444445 156.444444s-70.172444 156.444444-156.444445 156.444445z m0-56.888889c54.897778 0 99.555556-44.657778 99.555556-99.555556s-44.657778-99.555556-99.555556-99.555555-99.555556 44.657778-99.555555 99.555555 44.657778 99.555556 99.555555 99.555556z" fill="#4282fd" p-id="6217"></path></svg>