<?xml version="1.0" encoding="UTF-8"?>
<svg xmlns="http://www.w3.org/2000/svg" xmlns:xlink="http://www.w3.org/1999/xlink" viewBox="0 0 1024 1024" width="1024px" height="1024px">
<g id="surface93188976">
<path style=" stroke:none;fill-rule:nonzero;fill:rgb(25.882354%,50.980395%,99.215686%);fill-opacity:1;" d="M 714.800781 40.960938 C 673.039062 40.960938 636.878906 52.238281 611.839844 63.359375 C 587.28125 55.121094 546.558594 41.039062 497.679688 51.199219 C 469.199219 56.160156 443.039062 67.921875 419.039062 85.921875 C 379.519531 66.878906 338.238281 55.199219 294.960938 53.28125 C 268.320312 51.199219 159.761719 63.519531 120.800781 120.800781 C 106.480469 143.359375 92.160156 172 86 206.800781 C 79.839844 237.519531 79.839844 272.398438 90.078125 344.078125 C 96.238281 393.199219 104.480469 426 122.878906 493.519531 C 124.960938 499.679688 135.199219 532.480469 165.921875 622.640625 C 172 638.960938 184.320312 669.679688 208.878906 698.320312 C 225.28125 718.800781 241.679688 731.121094 262.160156 731.121094 C 288.800781 731.121094 307.199219 712.71875 323.601562 692.238281 C 324.800781 690.878906 326.078125 689.359375 327.28125 688 C 325.761719 690.398438 324.398438 693.039062 323.601562 696.320312 C 319.519531 716.800781 344.078125 733.199219 364.558594 741.359375 C 380.960938 749.519531 399.359375 751.601562 413.679688 751.601562 C 432.078125 751.601562 446.480469 747.519531 454.640625 745.519531 C 461.679688 743.121094 476.878906 736.558594 493.121094 725.761719 C 493.839844 778.078125 494.320312 839.839844 495.601562 854 C 501.761719 907.28125 516.078125 944.078125 542.71875 964.558594 C 563.199219 980.960938 600.078125 983.039062 602.160156 983.039062 C 638.960938 983.039062 696.320312 958.480469 720.878906 919.601562 C 733.199219 901.121094 737.28125 884.71875 741.359375 862.160156 C 745.441406 849.917969 749.519531 778.238281 751.601562 763.917969 C 754.398438 741.28125 756.558594 718.960938 758.71875 697.28125 C 772.238281 700.800781 788.878906 704.558594 806.960938 704.558594 C 839.679688 704.558594 882.71875 682 890.878906 677.839844 C 907.28125 665.601562 940 636.960938 925.679688 612.398438 C 917.519531 598 905.199219 598 874.480469 602.160156 C 874.480469 602.160156 825.359375 608.238281 821.199219 606.160156 C 818.238281 605.039062 813.679688 602.160156 808.558594 598.398438 C 819.199219 581.917969 828.640625 565.601562 839.679688 550.960938 C 864.238281 503.839844 878.640625 466.960938 888.878906 438.320312 C 907.28125 387.121094 917.519531 346.078125 923.601562 317.441406 C 938 256 942.078125 227.359375 933.839844 194.558594 C 917.519531 137.199219 858.078125 88.078125 833.519531 73.761719 C 817.121094 65.519531 776.238281 40.960938 714.800781 40.960938 Z M 714.800781 81.921875 C 766 81.921875 800.800781 102.398438 819.199219 110.558594 C 841.761719 122.878906 892.960938 163.839844 897.039062 202.71875 C 899.121094 225.28125 901.121094 247.839844 886.800781 307.199219 C 878.640625 335.839844 870.398438 372.71875 851.921875 423.921875 C 841.679688 452.558594 829.441406 487.441406 804.878906 530.480469 C 804.238281 531.519531 803.519531 532.640625 802.878906 533.761719 C 805.28125 525.121094 806.960938 518.160156 806.960938 518.160156 C 811.039062 497.679688 811.039062 481.28125 808.960938 456.71875 C 806.878906 444.398438 804.878906 413.679688 804.878906 401.359375 C 804.878906 395.28125 810.960938 331.761719 813.039062 309.199219 C 815.121094 272.398438 792.558594 227.28125 786.480469 219.121094 C 755.761719 172 739.359375 145.441406 706.558594 118.800781 C 698.398438 111.839844 684.398438 100.238281 665.359375 88.558594 C 680.398438 84.878906 697.039062 81.921875 714.800781 81.921875 Z M 533.839844 90.320312 C 560.558594 90.960938 583.199219 98.320312 600.078125 104.480469 C 643.121094 118.800781 669.679688 141.28125 682 151.519531 C 708.640625 174.078125 722.960938 196.640625 753.679688 243.761719 C 755.921875 248.238281 761.761719 257.761719 766.398438 271.039062 C 724.480469 267.199219 696.640625 281.921875 679.921875 296.960938 C 655.359375 317.441406 657.359375 348.160156 659.441406 370.640625 C 659.441406 387.039062 663.601562 407.601562 694.320312 477.199219 C 706.558594 507.921875 718.800781 540.640625 731.121094 563.199219 C 737.519531 575.921875 745.359375 587.601562 753.761719 598 C 748.878906 600.480469 743.921875 603.679688 739.28125 608.238281 C 727.039062 622.558594 724.960938 636.960938 720.878906 663.601562 C 716.800781 684.078125 712.71875 727.039062 710.640625 761.839844 C 710.640625 776.160156 704.558594 845.839844 702.480469 856.078125 C 696.320312 876.558594 694.238281 886.800781 686.078125 899.121094 C 671.761719 921.601562 626.71875 940.078125 600.078125 938 C 591.921875 938 579.601562 938 569.359375 929.839844 C 546.800781 913.441406 538.640625 876.558594 536.558594 847.921875 C 534.480469 827.441406 536.558594 679.921875 532.480469 647.121094 C 530.398438 638.960938 528.398438 618.480469 512 604.160156 C 505.121094 598.398438 490.878906 595.441406 477.441406 593.441406 C 477.601562 586.558594 478 579.679688 479.28125 573.441406 C 481.28125 561.121094 485.359375 554.960938 489.519531 544.71875 C 491.519531 538.640625 495.601562 530.480469 499.761719 520.238281 C 518.160156 462.878906 514 387.039062 503.761719 339.921875 C 501.761719 335.839844 493.519531 303.121094 464.878906 284.71875 C 434.160156 266.238281 401.359375 276.480469 382.960938 282.640625 C 375.359375 284.71875 367.839844 288 360.320312 291.839844 C 361.601562 283.28125 362.71875 274.640625 364.558594 266.238281 C 372.71875 225.28125 380.960938 190.480469 407.601562 155.679688 C 436.238281 120.800781 468.960938 98.320312 505.839844 92.160156 C 515.601562 90.640625 524.960938 90.078125 533.839844 90.320312 Z M 280.960938 93.921875 C 285.761719 93.839844 289.839844 93.921875 292.878906 94.238281 C 324.878906 95.921875 355.519531 103.441406 385.921875 116.238281 C 382.160156 120.398438 378.398438 124.558594 374.800781 129.039062 C 340 170 331.761719 212.960938 323.601562 256 C 313.359375 307.199219 311.28125 360.398438 319.441406 413.679688 L 315.441406 452.558594 C 313.359375 473.039062 309.199219 512 331.761719 552.960938 C 339.679688 566.558594 348.398438 578.078125 358 587.921875 C 337.199219 615.441406 315.121094 641.441406 292.878906 665.601562 C 280.558594 679.921875 270.320312 690.160156 262.160156 690.160156 C 260.078125 690.160156 251.921875 686.078125 239.601562 671.761719 C 217.039062 647.199219 208.878906 620.558594 204.800781 610.320312 C 180.238281 536.558594 165.921875 489.441406 163.839844 483.28125 C 147.441406 417.761719 139.28125 385.039062 131.039062 337.917969 C 120.800781 272.398438 120.800781 239.601562 126.960938 213.039062 C 133.121094 184.320312 143.359375 161.761719 153.601562 145.441406 C 178.71875 106 247.679688 94.800781 280.960938 93.917969 Z M 750.878906 309.761719 C 757.441406 309.761719 764.558594 310.558594 772.078125 312.160156 C 771.839844 331.28125 763.921875 391.28125 763.921875 399.359375 C 763.921875 415.761719 768 448.480469 768 460.800781 C 770.078125 483.359375 770.078125 495.601562 768 512 C 768 512 764.960938 526.640625 761.839844 537.039062 C 752.320312 515.519531 741.761719 489.839844 729.039062 460.800781 C 698.320312 391.199219 696.320312 376.878906 696.320312 366.640625 C 696.320312 352.238281 696.320312 333.839844 708.558594 325.679688 C 720.078125 315.441406 734.078125 309.921875 750.878906 309.761719 Z M 432.960938 315.761719 C 437.039062 316.238281 440.800781 317.441406 444.398438 319.441406 C 460.800781 327.679688 464.878906 348.160156 464.878906 348.160156 C 475.121094 393.199219 479.199219 460.800781 462.800781 505.839844 C 460.800781 514 456.71875 520.160156 454.640625 526.320312 C 450.558594 536.558594 446.480469 546.800781 442.320312 565.199219 C 441.28125 572.800781 440.800781 580.320312 440.558594 587.839844 C 426.398438 584.878906 413.039062 579.839844 403.441406 573.441406 C 387.039062 565.28125 374.800781 550.878906 366.640625 534.480469 C 352.238281 503.761719 354.320312 475.121094 356.398438 458.800781 L 360.398438 411.601562 C 357.519531 388.558594 356.160156 365.441406 356.480469 342.480469 C 365.921875 334.398438 378.238281 326.160156 395.28125 321.519531 C 407.601562 318.480469 421.039062 314.238281 432.960938 315.761719 Z M 734.960938 329.519531 C 729.601562 329.761719 723.921875 330.71875 720.878906 331.761719 C 712.71875 333.839844 710.640625 333.839844 708.558594 337.921875 C 706.558594 342 712.71875 348.160156 714.800781 352.238281 C 716.800781 352.238281 722.960938 358.398438 731.121094 356.398438 C 737.28125 354.320312 741.359375 350.238281 743.441406 348.160156 C 745.519531 346.078125 753.679688 335.839844 747.519531 331.761719 C 745.441406 329.679688 740.320312 329.199219 734.960938 329.519531 Z M 428.320312 344.398438 C 426.078125 344.558594 423.921875 345.121094 421.839844 346.160156 C 419.839844 346.160156 415.761719 348.160156 413.679688 352.238281 C 411.601562 356.320312 413.679688 360.398438 415.761719 362.480469 C 419.839844 368.640625 426 374.800781 436.238281 374.800781 C 438.320312 374.800781 446.480469 374.800781 452.558594 368.640625 C 452.558594 368.640625 458.800781 362.480469 458.800781 356.398438 C 456.71875 352.238281 452.640625 350.238281 446.480469 348.160156 C 441.839844 346.640625 434.960938 343.921875 428.320312 344.398438 Z M 390.640625 612.398438 C 403.199219 619.121094 418.320312 624.558594 434.878906 628.320312 C 430.480469 637.121094 424.160156 644.398438 417.839844 649.199219 C 403.441406 659.441406 385.039062 665.601562 366.640625 669.679688 C 362.480469 669.679688 360.480469 671.761719 356.398438 671.761719 C 346.480469 674.558594 336.878906 677.679688 330.320312 684.480469 C 350.398438 662.160156 370.558594 637.519531 390.640625 612.398438 Z M 785.519531 628.800781 C 794.480469 635.519531 803.28125 640.480469 810.960938 643.121094 C 823.28125 647.199219 833.519531 647.199219 870.398438 643.121094 C 864.238281 649.199219 845.839844 659.441406 819.199219 663.601562 C 802.078125 665.28125 780.800781 661.199219 763.519531 656.238281 C 765.121094 644.640625 766.960938 638 770 634.878906 C 771.121094 633.839844 777.921875 631.761719 785.519531 628.800781 Z M 477.121094 634.960938 C 481.359375 635.679688 484.71875 636.238281 485.359375 636.878906 C 489.441406 641.039062 491.519531 651.28125 491.519531 655.359375 C 491.761719 658.878906 491.921875 667.761719 492.078125 673.921875 C 475.199219 693.679688 448.078125 704.640625 442.320312 706.558594 C 434.160156 710.640625 409.601562 714.71875 385.039062 706.558594 C 405.519531 700.398438 426 694.320312 442.320312 682 C 456.640625 671.761719 468.960938 655.441406 477.121094 634.960938 Z M 477.121094 634.960938 "/>
</g>
</svg>
