<?xml version="1.0" standalone="no"?><!DOCTYPE svg PUBLIC "-//W3C//DTD SVG 1.1//EN" "http://www.w3.org/Graphics/SVG/1.1/DTD/svg11.dtd"><svg t="1664177415476" class="icon" viewBox="0 0 1024 1024" version="1.1" xmlns="http://www.w3.org/2000/svg" p-id="37031" xmlns:xlink="http://www.w3.org/1999/xlink" width="128" height="128"><path d="M208.022 774.655h-37.988V103.792h531.907v37.266h37.998v-37.266s0-37.275-37.998-37.275H170.034c-37.997 0-37.997 37.275-37.997 37.275v670.862s0 37.27 37.997 37.27h37.988v-37.269z m75.986 186.348c-37.99 0-37.99-37.266-37.99-37.266v-708.14s0-37.266 37.99-37.266h569.905c37.993 0 37.993 37.265 37.993 37.265v484.515L625.952 961.003H284.008z m0-37.266H625.95l227.962-223.626V215.596H284.008v708.141z m338.147 31.73c-1.457 0-2.935-0.285-4.338-0.866-4.232-1.754-29.859-26.29-29.859-30.864V700.111s0-37.265 37.993-37.265h265.954s-27.153 26.581-30.392 29.81l-231.34 259.493a11.3 11.3 0 0 1-8.018 3.318m3.796-255.356v223.626l227.962-223.626H625.95z m151.976-260.888h-303.95V401.95h303.95v37.273z m0 111.81h-303.95v-37.27h303.95v37.27zM625.951 290.141H511.973v37.27H625.95v-37.27zM360.004 401.95h75.983v37.273h-75.983V401.95z m0 111.813h75.983v37.27h-75.983v-37.27z" p-id="37032" fill="#4282fd"></path></svg>