<?xml version="1.0" standalone="no"?><!DOCTYPE svg PUBLIC "-//W3C//DTD SVG 1.1//EN" "http://www.w3.org/Graphics/SVG/1.1/DTD/svg11.dtd"><svg t="1664177911642" class="icon" viewBox="0 0 1024 1024" version="1.1" xmlns="http://www.w3.org/2000/svg" p-id="53818" xmlns:xlink="http://www.w3.org/1999/xlink" width="128" height="128"><path d="M517.8 586.8c-8.4 0-16.6-2.1-23.9-6.1L52 339.9c-16.3-8.8-26.2-25.8-25.9-44.4 0.2-18.6 10.7-35.3 27.4-43.7L500.1 27.1c14.2-7.1 30.9-7.1 44.9 0l442 224.6c16.6 8.4 27 25.2 27.2 43.8 0.2 18.7-9.9 35.7-26.2 44.4L541.5 580.7c-7.2 4-15.4 6.1-23.7 6.1z m4.8-525c-1.6 0-3.1 0.4-4.6 1.1L71.5 287.5c-3.3 1.7-5.3 4.9-5.4 8.5v0.2c-0.1 3.5 1.9 6.9 4.9 8.5h0.1l442 240.9c1.4 0.8 3 1.2 4.7 1.2 1.6 0 3.2-0.4 4.5-1.2l0.1-0.1 446.8-240.9c3.1-1.7 5.1-5 5-8.8 0-3.6-2.1-6.9-5.3-8.5L527 62.8c-1.4-0.7-2.9-1-4.4-1z" fill="#4282fd" p-id="53819"></path><path d="M512.7 805.7c-8.4 0-16.6-2.1-23.9-6.1L46.9 558.7c-16.4-8.8-26.3-25.9-26-44.5 0.2-18.5 10.7-35.2 27.4-43.6l93.4-47 18 35.7-93.3 46.9c-3.3 1.7-5.3 4.9-5.4 8.4v0.2c-0.1 3.6 1.9 6.9 5 8.6l0.1 0.1 442 241c1.4 0.8 3 1.2 4.7 1.2 1.6 0 3.2-0.4 4.5-1.2l0.1-0.1 446.7-240.9c3.2-1.7 5.1-5 5.1-8.7-0.1-3.6-2.2-6.9-5.4-8.6l-88.3-44.9 18.1-35.7 88.3 44.9c16.4 8.4 26.9 25.1 27.2 43.5v0.2c0.2 18.7-9.9 35.7-26.2 44.4L536.4 799.7c-7.2 3.9-15.4 6-23.7 6z" fill="#4282fd" p-id="53820"></path><path d="M520.1 1021.9c-8.4 0-16.6-2.1-23.9-6.1L54.3 774.9c-16.4-8.8-26.3-25.9-26-44.5 0.2-18.5 10.7-35.2 27.4-43.6l93.4-47 18 35.7-93.3 46.9c-3.3 1.7-5.3 4.9-5.4 8.4v0.2c-0.1 3.6 1.9 6.9 5 8.6l0.1 0.1 442 241c1.4 0.8 3 1.2 4.7 1.2 1.6 0 3.2-0.4 4.5-1.2l0.1-0.1 446.7-240.9c3.2-1.7 5.1-5 5.1-8.7-0.1-3.6-2.2-6.9-5.4-8.6l-88.3-44.9L901 642l88.3 44.9c16.4 8.4 26.9 25.1 27.2 43.5v0.2c0.2 18.7-9.9 35.7-26.2 44.4l-446.5 240.8c-7.3 4-15.5 6.1-23.7 6.1z" fill="#4282fd" p-id="53821"></path></svg>