<?xml version="1.0" standalone="no"?><!DOCTYPE svg PUBLIC "-//W3C//DTD SVG 1.1//EN" "http://www.w3.org/Graphics/SVG/1.1/DTD/svg11.dtd"><svg t="1658309103662" class="icon" viewBox="0 0 1024 1024" version="1.1" xmlns="http://www.w3.org/2000/svg" p-id="2564" xmlns:xlink="http://www.w3.org/1999/xlink" width="128" height="128"><defs><style type="text/css">@font-face { font-family: feedback-iconfont; src: url("//at.alicdn.com/t/font_1031158_u69w8yhxdu.woff2?t=1630033759944") format("woff2"), url("//at.alicdn.com/t/font_1031158_u69w8yhxdu.woff?t=1630033759944") format("woff"), url("//at.alicdn.com/t/font_1031158_u69w8yhxdu.ttf?t=1630033759944") format("truetype"); }
</style></defs><path d="M653.084444 177.493333v168.391111H370.915556V177.493333h282.168888M705.422222 125.155556H318.577778v273.066666h386.844444V125.155556zM167.253333 497.664h52.337778v159.288889h-52.337778z" fill="#4282fd" p-id="2565"></path><path d="M167.253333 489.699556h689.493334v52.337777H167.253333z" fill="#4282fd" p-id="2566"></path><path d="M485.831111 383.886222h52.337778v284.444445h-52.337778zM804.408889 497.664h52.337778v159.288889h-52.337778zM254.862222 700.871111v122.88H131.982222V700.871111h122.88M307.2 648.533333H79.644444v227.555556h227.555556V648.533333z" fill="#4282fd" p-id="2567"></path><path d="M573.44 700.871111v122.88H450.56V700.871111h122.88M625.777778 648.533333H398.222222v227.555556h227.555556V648.533333zM892.017778 700.871111v122.88H769.137778V700.871111h122.88M944.355556 648.533333H716.8v227.555556h227.555556V648.533333z" fill="#4282fd" p-id="2568"></path></svg>