<?xml version="1.0" standalone="no"?><!DOCTYPE svg PUBLIC "-//W3C//DTD SVG 1.1//EN" "http://www.w3.org/Graphics/SVG/1.1/DTD/svg11.dtd"><svg t="1657791627486" class="icon" viewBox="0 0 1024 1024" version="1.1" xmlns="http://www.w3.org/2000/svg" p-id="62579" xmlns:xlink="http://www.w3.org/1999/xlink" width="128" height="128"><defs><style type="text/css">@font-face { font-family: feedback-iconfont; src: url("//at.alicdn.com/t/font_1031158_u69w8yhxdu.woff2?t=1630033759944") format("woff2"), url("//at.alicdn.com/t/font_1031158_u69w8yhxdu.woff?t=1630033759944") format("woff"), url("//at.alicdn.com/t/font_1031158_u69w8yhxdu.ttf?t=1630033759944") format("truetype"); }
</style></defs><path d="M129.954909 277.038545h171.101091V110.219636h494.685091v352.256h52.130909V58.181818H253.114182L105.658182 207.499636h-1.768727v1.768728l-26.065455 26.437818v694.551273h376.738909v-52.13091H129.954909V277.038545z" fill="#4282fd" p-id="62580"></path><path d="M269.777455 358.772364h404.386909v52.130909H269.777455zM269.777455 489.751273h261.399272v52.130909H269.777455zM726.760727 526.801455a219.508364 219.508364 0 1 0 219.415273 219.694545 219.787636 219.787636 0 0 0-219.415273-219.694545z m0 386.792727a167.563636 167.563636 0 1 1 167.563637-167.563637 167.563636 167.563636 0 0 1-167.563637 167.563637z" fill="#4282fd" p-id="62581"></path><path d="M784.290909 651.822545l-57.530182 57.437091-57.623272-57.437091-36.864 36.77091 57.623272 57.530181-57.623272 57.623273 36.864 36.864 57.623272-57.623273 57.530182 57.623273 36.770909-36.864-57.437091-57.623273 57.437091-57.530181-36.770909-36.77091z" fill="#4282fd" p-id="62582"></path></svg>