<?xml version="1.0" standalone="no"?><!DOCTYPE svg PUBLIC "-//W3C//DTD SVG 1.1//EN" "http://www.w3.org/Graphics/SVG/1.1/DTD/svg11.dtd"><svg t="1657797302970" class="icon" viewBox="0 0 1327 1024" version="1.1" xmlns="http://www.w3.org/2000/svg" p-id="137762" xmlns:xlink="http://www.w3.org/1999/xlink" width="165.875" height="128"><defs><style type="text/css">@font-face { font-family: feedback-iconfont; src: url("//at.alicdn.com/t/font_1031158_u69w8yhxdu.woff2?t=1630033759944") format("woff2"), url("//at.alicdn.com/t/font_1031158_u69w8yhxdu.woff?t=1630033759944") format("woff"), url("//at.alicdn.com/t/font_1031158_u69w8yhxdu.ttf?t=1630033759944") format("truetype"); }
</style></defs><path d="M48.378776 860.36898c26.488163-17.439347 47.020408-41.670531 61.617632-72.453225C38.922449 703.216327 0 599.457959 0 493.254531 0 221.727347 247.839347 0.846367 552.155429 0.313469c282.164245 0 518.373878 188.186122 549.198367 437.645062 2.424163 18.254367-10.553469 35.139918-28.661551 37.313306a32.87249 32.87249 0 0 1-37.020735-28.870531c-26.749388-215.95951-234.590041-379.08898-483.516081-379.088979-268.099918 0-486.211918 190.902857-486.211919 425.388408 0 97.771102 37.031184 189.54449 106.757225 265.801143a33.938286 33.938286 0 0 1 6.760489 34.314449c-13.249306 35.94449-32.161959 66.45551-56.487183 91.512163 37.835755-0.543347 85.681633-7.899429 130.267428-34.857796 10.271347-5.997714 23.238531-6.269388 33.509878-0.271674 79.192816 45.473959 171.081143 69.443918 265.675755 69.443919 51.617959 0 102.431347-7.084408 151.092245-20.971102 17.554286-5.172245 35.94449 5.172245 40.803265 22.883265 5.130449 17.700571-5.140898 36.216163-22.705632 41.116735a617.586939 617.586939 0 0 1-169.189878 23.426612c-99.725061 0-196.754286-23.698286-282.153796-68.91102-78.377796 40.583837-159.733551 37.313306-202.971428 31.32604a47.062204 47.062204 0 0 1-39.465796-36.498285A48.117551 48.117551 0 0 1 48.378776 860.36898z m503.776653-331.713307c-19.403755 0-35.129469-15.851102-35.12947-35.411591 0-19.550041 15.725714-35.401143 35.12947-35.401143 19.403755 0 35.139918 15.851102 35.139918 35.401143 0 19.56049-15.736163 35.411592-35.139918 35.411591z m-150.810123 0c-19.403755 0-35.129469-15.851102-35.129469-35.411591 0-19.550041 15.725714-35.401143 35.129469-35.401143 19.403755 0 35.139918 15.851102 35.139918 35.401143 0 19.56049-15.736163 35.411592-35.139918 35.411591z m301.891918 0c-19.403755 0-35.129469-15.851102-35.129469-35.411591 0-19.550041 15.725714-35.401143 35.129469-35.401143 19.403755 0 35.139918 15.851102 35.139919 35.401143 0 19.56049-15.736163 35.411592-35.139919 35.411591z m298.381062 495.114449c-67.834776 0-131.625796-26.697143-179.461225-75.169959a33.38449 33.38449 0 0 1 0-47.124898 32.778449 32.778449 0 0 1 46.759184 0c35.401143 35.954939 82.703673 55.567673 132.973714 55.567674 93.779592 0 171.614041-69.715592 185.678368-160.684408l-23.510205 21.524898a33.060571 33.060571 0 0 1-46.769632-2.455511c-12.162612-13.61502-11.075918-34.857796 2.434612-47.124898l85.138286-77.604571c7.021714-6.541061 16.749714-9.811592 26.21649-8.442776 9.717551 1.358367 18.108082 6.530612 23.510204 14.701715l64.323918 96.956081a33.802449 33.802449 0 0 1-9.195102 46.28898 33.185959 33.185959 0 0 1-18.369306 5.726041c-10.814694 0-21.086041-5.443918-27.574857-14.983837l-11.890939-17.700571c-21.618939 119.557224-125.398204 210.526041-250.26351 210.52604zM774.049959 839.115755c-9.728-1.086694-18.108082-6.530612-23.781877-14.701714l-64.323919-96.956082a33.802449 33.802449 0 0 1 9.195102-46.288979c15.401796-10.354939 35.672816-5.997714 45.933715 9.247347L753.789388 709.485714c26.226939-113.569959 127.299918-198.812735 247.839347-198.812734 68.106449 0 131.88702 26.697143 179.994122 75.169959a33.38449 33.38449 0 0 1 0 47.114449 32.778449 32.778449 0 0 1-46.748735 0c-35.411592-35.94449-82.703673-55.557224-132.973714-55.557225-89.19249 0-163.787755 62.641633-183.243755 146.515592l22.433959-20.417306a33.060571 33.060571 0 0 1 46.748735 2.445061c12.162612 13.61502 11.075918 34.857796-2.424163 47.124898l-85.138286 77.604572a32.067918 32.067918 0 0 1-22.162286 8.714449c-1.358367 0-2.706286 0-4.054204-0.271674z" fill="#4282fd" p-id="137763"></path></svg>