<?xml version="1.0" encoding="UTF-8"?>
<svg xmlns="http://www.w3.org/2000/svg" xmlns:xlink="http://www.w3.org/1999/xlink" viewBox="0 0 128 128" width="128px" height="128px">
<g id="surface116316664">
<path style=" stroke:none;fill-rule:nonzero;fill:rgb(25.882354%,50.980395%,99.215686%);fill-opacity:1;" d="M 48.640625 15.359375 C 24.949219 15.359375 5.121094 31.640625 5.121094 52.480469 C 5.121094 63.730469 10.988281 73.421875 20.058594 80.191406 L 13.261719 100.621094 L 34.488281 87.46875 C 38.878906 88.851562 43.730469 89.601562 48.640625 89.601562 C 50.550781 89.601562 52.410156 89.460938 54.261719 89.25 C 59.851562 100.109375 72.519531 107.519531 87.039062 107.519531 C 91.449219 107.519531 95.53125 106.691406 99.320312 105.558594 L 116.851562 115.371094 L 111.960938 98.601562 C 118.558594 93.121094 122.878906 85.488281 122.878906 76.800781 C 122.878906 60.898438 109.050781 48.21875 91.519531 46.351562 C 88.058594 28.480469 69.949219 15.359375 48.640625 15.359375 Z M 48.640625 20.480469 C 67.351562 20.480469 82.761719 31.621094 86.28125 46.109375 C 67.03125 46.460938 51.199219 59.789062 51.199219 76.800781 C 51.199219 79.410156 51.609375 81.929688 52.320312 84.328125 C 51.109375 84.429688 49.878906 84.480469 48.640625 84.480469 C 43.78125 84.480469 38.910156 83.738281 34.898438 82.320312 L 33.75 81.921875 L 22.578125 88.828125 L 26.078125 78.320312 L 24.480469 77.238281 C 15.570312 71.21875 10.238281 62.578125 10.238281 52.480469 C 10.238281 34.921875 27.28125 20.480469 48.640625 20.480469 Z M 33.28125 35.839844 C 30.460938 35.839844 28.160156 38.140625 28.160156 40.960938 C 28.160156 43.78125 30.460938 46.078125 33.28125 46.078125 C 36.101562 46.078125 38.398438 43.78125 38.398438 40.960938 C 38.398438 38.140625 36.101562 35.839844 33.28125 35.839844 Z M 64 35.839844 C 61.179688 35.839844 58.878906 38.140625 58.878906 40.960938 C 58.878906 43.78125 61.179688 46.078125 64 46.078125 C 66.820312 46.078125 69.121094 43.78125 69.121094 40.960938 C 69.121094 38.140625 66.820312 35.839844 64 35.839844 Z M 87.039062 51.199219 C 104.308594 51.199219 117.761719 62.808594 117.761719 76.800781 C 117.761719 84.371094 113.898438 91.011719 107.53125 95.730469 L 106.101562 96.800781 L 108.429688 104.789062 L 100.109375 100.121094 L 99.03125 100.480469 C 95.449219 101.679688 91.359375 102.398438 87.039062 102.398438 C 69.769531 102.398438 56.320312 90.789062 56.320312 76.800781 C 56.320312 62.808594 69.769531 51.199219 87.039062 51.199219 Z M 75.519531 66.558594 C 73.46875 66.558594 71.679688 68.351562 71.679688 70.398438 C 71.679688 72.449219 73.46875 74.238281 75.519531 74.238281 C 77.570312 74.238281 79.359375 72.449219 79.359375 70.398438 C 79.359375 68.351562 77.570312 66.558594 75.519531 66.558594 Z M 98.558594 66.558594 C 96.511719 66.558594 94.71875 68.351562 94.71875 70.398438 C 94.71875 72.449219 96.511719 74.238281 98.558594 74.238281 C 100.609375 74.238281 102.398438 72.449219 102.398438 70.398438 C 102.398438 68.351562 100.609375 66.558594 98.558594 66.558594 Z M 98.558594 66.558594 "/>
</g>
</svg>
