<?xml version="1.0" encoding="UTF-8"?>
<svg xmlns="http://www.w3.org/2000/svg" xmlns:xlink="http://www.w3.org/1999/xlink" viewBox="0 0 128 128" width="128px" height="128px">
<g id="surface116550681">
<path style=" stroke:none;fill-rule:nonzero;fill:rgb(25.882354%,50.980395%,99.215686%);fill-opacity:1;" d="M 64 5.121094 C 31.511719 5.121094 5.121094 31.511719 5.121094 64 C 5.121094 74.441406 7.984375 84.1875 12.761719 92.695312 L 5.214844 119.628906 C 4.96875 120.507812 5.207031 121.449219 5.84375 122.101562 C 6.476562 122.757812 7.410156 123.023438 8.296875 122.804688 L 36.378906 115.84375 C 44.632812 120.25 53.996094 122.878906 64 122.878906 C 96.488281 122.878906 122.878906 96.488281 122.878906 64 C 122.878906 31.511719 96.488281 5.121094 64 5.121094 Z M 64 10.238281 C 93.71875 10.238281 117.761719 34.28125 117.761719 64 C 117.761719 93.71875 93.71875 117.761719 64 117.761719 C 54.472656 117.761719 45.546875 115.277344 37.789062 110.933594 C 37.222656 110.617188 36.554688 110.527344 35.925781 110.683594 L 11.328125 116.78125 L 17.925781 93.25 C 18.117188 92.578125 18.023438 91.855469 17.671875 91.253906 C 12.957031 83.261719 10.238281 73.957031 10.238281 64 C 10.238281 34.28125 34.28125 10.238281 64 10.238281 Z M 42.605469 33.28125 C 40.964844 33.28125 38.621094 33.890625 36.695312 35.964844 C 35.539062 37.210938 30.71875 41.90625 30.71875 50.160156 C 30.71875 58.765625 36.6875 66.191406 37.410156 67.144531 L 37.414062 67.144531 L 37.414062 67.148438 C 37.347656 67.058594 38.332031 68.484375 39.644531 70.195312 C 40.960938 71.90625 42.796875 74.148438 45.105469 76.578125 C 49.722656 81.441406 56.214844 87.058594 64.269531 90.496094 C 67.980469 92.074219 70.90625 93.027344 73.125 93.726562 C 77.234375 95.015625 80.976562 94.820312 83.789062 94.40625 C 85.894531 94.09375 88.210938 93.085938 90.5 91.636719 C 92.789062 90.1875 95.035156 88.382812 96.023438 85.644531 C 96.734375 83.683594 97.09375 81.867188 97.226562 80.375 C 97.289062 79.628906 97.296875 78.96875 97.25 78.359375 C 97.203125 77.75 97.253906 77.28125 96.683594 76.351562 C 95.492188 74.394531 94.144531 74.34375 92.734375 73.644531 C 91.953125 73.257812 89.722656 72.167969 87.488281 71.105469 C 85.257812 70.042969 83.324219 69.097656 82.136719 68.675781 C 81.382812 68.40625 80.464844 68.015625 79.140625 68.164062 C 77.816406 68.316406 76.507812 69.269531 75.746094 70.398438 C 75.023438 71.46875 72.117188 74.902344 71.230469 75.910156 C 71.21875 75.902344 71.296875 75.9375 70.945312 75.765625 C 69.847656 75.222656 68.507812 74.761719 66.523438 73.714844 C 64.542969 72.667969 62.058594 71.125 59.34375 68.730469 L 59.34375 68.726562 C 55.304688 65.167969 52.472656 60.699219 51.578125 59.199219 C 51.640625 59.128906 51.574219 59.214844 51.699219 59.089844 L 51.703125 59.085938 C 52.617188 58.1875 53.425781 57.113281 54.109375 56.324219 C 55.078125 55.207031 55.507812 54.222656 55.96875 53.304688 C 56.894531 51.472656 56.378906 49.457031 55.84375 48.394531 L 55.84375 48.390625 C 55.882812 48.464844 55.554688 47.746094 55.203125 46.914062 C 54.851562 46.082031 54.402344 45.003906 53.925781 43.855469 C 52.964844 41.554688 51.894531 38.976562 51.261719 37.464844 L 51.261719 37.460938 C 50.511719 35.679688 49.496094 34.398438 48.171875 33.78125 C 46.84375 33.160156 45.671875 33.335938 45.625 33.335938 L 45.621094 33.335938 C 44.671875 33.292969 43.636719 33.28125 42.605469 33.28125 Z M 42.605469 38.398438 C 43.59375 38.398438 44.566406 38.410156 45.378906 38.449219 C 46.21875 38.492188 46.167969 38.496094 46.003906 38.421875 C 45.839844 38.34375 46.0625 38.320312 46.539062 39.449219 C 47.164062 40.929688 48.238281 43.519531 49.199219 45.824219 C 49.679688 46.976562 50.128906 48.0625 50.488281 48.910156 C 50.847656 49.757812 51.042969 50.234375 51.269531 50.683594 L 51.269531 50.691406 L 51.273438 50.695312 C 51.496094 51.132812 51.476562 50.851562 51.398438 51.003906 C 50.859375 52.078125 50.785156 52.339844 50.238281 52.96875 C 49.40625 53.929688 48.558594 54.996094 48.109375 55.441406 C 47.71875 55.824219 47.007812 56.425781 46.566406 57.605469 C 46.121094 58.785156 46.328125 60.402344 47.039062 61.609375 C 47.988281 63.21875 51.109375 68.300781 55.960938 72.570312 C 59.015625 75.261719 61.859375 77.046875 64.136719 78.246094 C 66.410156 79.445312 68.261719 80.144531 68.675781 80.351562 C 69.660156 80.835938 70.734375 81.214844 71.984375 81.066406 C 73.234375 80.914062 74.3125 80.15625 75 79.378906 L 75.003906 79.375 C 75.917969 78.339844 78.632812 75.242188 79.933594 73.328125 C 79.988281 73.347656 79.972656 73.335938 80.40625 73.488281 L 80.40625 73.496094 L 80.410156 73.496094 C 80.609375 73.566406 83.082031 74.671875 85.289062 75.726562 C 87.496094 76.777344 89.738281 77.871094 90.464844 78.230469 C 91.515625 78.75 92.011719 79.089844 92.140625 79.089844 C 92.148438 79.316406 92.15625 79.558594 92.125 79.929688 C 92.035156 80.957031 91.761719 82.382812 91.210938 83.90625 C 90.941406 84.652344 89.535156 86.1875 87.765625 87.308594 C 85.992188 88.429688 83.839844 89.222656 83.039062 89.339844 C 80.640625 89.695312 77.789062 89.824219 74.660156 88.839844 C 72.488281 88.160156 69.785156 87.277344 66.28125 85.785156 C 59.175781 82.753906 53.132812 77.597656 48.820312 73.054688 C 46.664062 70.785156 44.933594 68.667969 43.703125 67.070312 C 42.476562 65.472656 41.941406 64.644531 41.496094 64.054688 L 41.488281 64.050781 C 40.695312 63 35.839844 56.246094 35.839844 50.160156 C 35.839844 43.71875 38.832031 41.195312 40.449219 39.449219 C 41.300781 38.535156 42.230469 38.398438 42.605469 38.398438 Z M 42.605469 38.398438 "/>
</g>
</svg>
